<svg xmlns="http://www.w3.org/2000/svg" font-family="Helvetica" viewBox="0 0 100 100">
  <rect width="100" height="100" fill="#b9e" rx="10"/>
  <path fill="#2068" d="m 65 9 l -9 5 l -9 7 c -5 4 -5 8 -5 8 v 38 s 0 3 -3 5 l 5 -1 l 8 -5 c 2 -2 2 -4 2 -5 v -9 h 1 l 2 3 l 3 7 a 352 352 90 0 1 3 14 l -2 1 h -2 l -8 -2 l -10 0 c -9 1 -15 7 -18 12 l -2 3 l 13 -6 h 11 l 9 6 l 10 -12 c 0 2 1 7 4 9 c 4 3 8 2 8 2 l 8 -13 l -8 2 l -4 -17 l -5 -11 l -4 -3 l 8 -8 c 3 -5 4 -12 4 -15 c 0 0 0 -11 -10 -15 m -15 0 s -3 3 -5 4 c -5 1 -12 -2 -18 -1 c -1 0 -7 1 -10 8 l -1 3 v 1 l 5 -4 c 2 -1 11 -2 15 2 c 4 0 7 -2 8 -3 c 3 -2 6 -10 6 -10 m 10 9 c 5 1 5 11 5 12 c -1 17 -11 21 -11 19 v -26 m -14 1 l -7 3 s -6 2 -6 6 v 10 h -4 c -2 0 -4 0 -5 3 v 10 l 2 3 s -1 -4 5 -3 h 2 v 18 c 0 3 -2 4 -2 4 l 10 -6 c 4 -4 3 -8 3 -8 v -35 l 2 -5"/>
</svg>